#!OML:ASF E:\emotionWalksFemale\Project 1\Capture day 1\Session 1\Female1.ASF
:FULLY-SPECIFIED
:DEGREES
489
root 9.16596 15.2825 -8.29151 -177.517 7.05477 -175.65
lowerback 2.43284 3.92123 5.07878
upperback -5.0024 5.73043 -0.260494
thorax -6.06551 2.66986 -3.52405
lowerneck -7.99504 -2.78097 -7.57592
upperneck 20.6365 -5.25828 7.28401
head 8.05481 -2.8458 3.14198
rclavicle -8.28435e-014 -2.50469e-014
rhumerus -29.0472 10.7112 -88.5001
rradius 34.0986
rwrist 19.0961
rhand 0.349208 -52.538
rfingers 7.12502
rthumb 25.9248 -80.7903
lclavicle -8.28435e-014 -2.50469e-014
lhumerus -47.191 9.42619 74.9968
lradius 36.9102
lwrist -14.8186
lhand -2.59762 -33.0882
lfingers 7.12502
lthumb 23.1001 -4.45293
rfemur 27.0256 8.35032 34.6055
rtibia 1.17681e-013
rfoot -0.905077 -14.3553
rtoes -6.75734
lfemur -30.1692 -24.3922 -11.5437
ltibia 25.0126
lfoot -20.3601 28.1385
ltoes 8.17107
490
root 9.15283 15.3031 -8.46727 -177.795 7.06587 -176.298
lowerback 2.47498 3.90262 4.61309
upperback -5.07697 5.67458 -0.456886
thorax -6.19457 2.65435 -3.47639
lowerneck -7.66414 -2.74549 -7.55628
upperneck 20.7249 -5.25602 7.18585
head 8.02008 -2.87373 3.10955
rclavicle 5.27773e-014 1.07344e-014
rhumerus -29.753 10.2566 -88.5084
rradius 33.9695
rwrist 19.3843
rhand -0.0251718 -52.244
rfingers 7.12502
rthumb 25.5663 -80.5482
lclavicle 5.27773e-014 1.07344e-014
lhumerus -47.9591 9.48435 74.4374
lradius 37.0968
lwrist -15.325
lhand -2.45756 -32.2666
lfingers 7.12502
lthumb 23.2345 -3.64823
rfemur 27.7387 7.91859 33.6451
rtibia -1.24042e-013
rfoot 0.585758 -13.6934
rtoes -7.44326
lfemur -29.0461 -23.8492 -13.0332
ltibia 24.8127
lfoot -17.974 27.9555
ltoes 7.58591
491
root 9.13622 15.3221 -8.63609 -178.156 6.90882 -176.797
lowerback 2.64478 3.83179 4.36972
upperback -5.08659 5.56198 -0.612174
thorax -6.31762 2.60011 -3.51181
lowerneck -7.61057 -2.82196 -7.56006
upperneck 20.9542 -5.39806 7.09702
head 8.0962 -2.9641 3.06684
rclavicle 4.47266e-014 2.54444e-014
rhumerus -30.3155 9.83005 -88.4505
rradius 33.7868
rwrist 19.4464
rhand -0.436197 -52.051
rfingers 7.12502
rthumb 25.1725 -80.4112
lclavicle 4.47266e-014 2.54444e-014
lhumerus -48.2794 9.88331 73.7129
lradius 36.4057
lwrist -16.5013
lhand -2.51044 -31.9119
lfingers 7.12502
lthumb 23.1837 -3.28714
rfemur 28.4702 7.32475 32.8151
rtibia 3.18055e-015
rfoot 2.36001 -12.9796
rtoes -7.42954
lfemur -27.8715 -23.2318 -14.3968
ltibia 24.5333
lfoot -15.9504 27.521
ltoes 7.00468
492
root 9.11864 15.3437 -8.80309 -178.486 6.84441 -177.405
lowerback 2.77005 3.82299 4.0489
upperback -5.05669 5.51809 -0.819034
thorax -6.36833 2.5847 -3.55592
lowerneck -7.5328 -2.7508 -7.50115
upperneck 21.0896 -5.33393 7.04916
head 8.11871 -2.94446 3.04824
rclavicle 6.19711e-014 7.95139e-016
rhumerus -30.6944 9.35902 -88.3148
rradius 33.552
rwrist 19.3049
rhand -0.65511 -51.9265
rfingers 7.12502
rthumb 24.9627 -80.3159
lclavicle 6.19711e-014 7.95139e-016
lhumerus -48.3089 10.3952 72.9566
lradius 35.4794
lwrist -17.8525
lhand -2.99285 -32.4406
lfingers 7.12502
lthumb 22.7208 -3.75833
rfemur 28.1165 6.82937 31.8327
rtibia 2.01602
rfoot 3.33703 -12.4879
rtoes -7.00094
lfemur -26.6934 -22.5998 -15.8144
ltibia 24.2441
lfoot -14.9274 26.7464
ltoes 8.43788
493
root 9.10046 15.3667 -8.97324 -178.744 6.79152 -178.079
lowerback 2.79141 3.81988 3.66126
upperback -5.06042 5.47889 -1.03961
thorax -6.39938 2.57764 -3.57088
lowerneck -8.91337 -2.91342 -7.29174
upperneck 22.5618 -5.57272 6.5891
head 8.87538 -3.08457 2.81568
rclavicle 7.70291e-014 9.54166e-015
rhumerus -31.2575 8.8081 -88.1701
rradius 33.4964
rwrist 19.352
rhand -0.798124 -52.0208
rfingers 7.12502
rthumb 24.8257 -80.4292
lclavicle 7.70291e-014 9.54166e-015
lhumerus -48.4108 10.7232 72.311
lradius 34.7915
lwrist -18.6491
lhand -3.34762 -33.1049
lfingers 7.12502
lthumb 22.3803 -4.38135
rfemur 24.8331 6.31127 30.7312
rtibia 9.71749
rfoot 1.61563 -12.2859
rtoes -5.51262
lfemur -25.5404 -22.022 -17.2667
ltibia 23.9266
lfoot -13.5898 26.1158
ltoes 7.39701
494
root 9.08377 15.3899 -9.14374 -178.927 6.74539 -178.552
lowerback 2.72161 3.79223 3.41602
upperback -5.07427 5.4203 -1.17738
thorax -6.38634 2.55899 -3.56986
lowerneck -7.79508 -2.55547 -8.17828
upperneck 21.8383 -5.25302 7.86041
head 8.44633 -2.91805 3.44634
rclavicle -2.5842e-015 3.97569e-015
rhumerus -31.9419 8.31982 -88.0506
rradius 33.5641
rwrist 19.4805
rhand -0.884249 -52.2365
rfingers 7.12502
rthumb 24.7432 -80.6562
lclavicle -2.5842e-015 3.97569e-015
lhumerus -48.7078 11.1404 71.6457
lradius 34.4557
lwrist -19.4263
lhand -3.02418 -32.8479
lfingers 7.12502
lthumb 22.6908 -4.16195
rfemur 22.9752 5.84676 29.7777
rtibia 14.2745
rfoot 1.66206 -11.8048
rtoes -3.76584
lfemur -24.4446 -21.1779 -18.5055
ltibia 23.5802
lfoot -12.1159 25.3776
ltoes 4.75604
495
root 9.07004 15.4143 -9.30981 -179.055 6.76593 -178.821
lowerback 2.66875 3.79954 3.30928
upperback -5.08279 5.42095 -1.24014
thorax -6.36801 2.56451 -3.57229
lowerneck -8.39997 -2.74076 -7.92781
upperneck 22.6507 -5.46401 7.19076
head 8.83241 -3.06548 3.14832
rclavicle 1.21259e-014 -7.95139e-016
rhumerus -32.5895 7.75405 -87.8456
rradius 33.6382
rwrist 19.4826
rhand -1.02673 -52.4315
rfingers 7.12502
rthumb 24.6066 -80.8699
lclavicle 1.21259e-014 -7.95139e-016
lhumerus -48.9404 11.5373 71.094
lradius 34.2228
lwrist -20.2686
lhand -2.6057 -32.2649
lfingers 7.12502
lthumb 23.0923 -3.62865
rfemur 21.2915 5.25029 28.9294
rtibia 18.1273
rfoot 2.49864 -11.0352
rtoes -2.0747
lfemur -23.4389 -20.5215 -19.3865
ltibia 23.2457
lfoot -11.2939 24.9227
ltoes 2.78738
496
root 9.05113 15.4354 -9.4721 -179.176 6.68285 -179.123
lowerback 2.6987 3.79144 3.26493
upperback -5.15941 5.41172 -1.3456
thorax -6.46164 2.55864 -3.66427
lowerneck -8.30244 -2.75151 -7.72983
upperneck 22.7379 -5.46845 6.87893
head 8.83125 -3.08912 3.00808
rclavicle -8.94531e-015 2.22639e-014
rhumerus -33.3748 7.13947 -87.6122
rradius 33.8258
rwrist 19.364
rhand -1.14503 -52.5753
rfingers 7.12502
rthumb 24.4932 -81.0291
lclavicle -8.94531e-015 2.22639e-014
lhumerus -49.1682 11.585 70.7522
lradius 34.027
lwrist -20.7033
lhand -2.41139 -31.9413
lfingers 7.12502
lthumb 23.2788 -3.32854
rfemur 19.7327 4.6116 28.0245
rtibia 21.6577
rfoot 4.06808 -10.3327
rtoes -0.30813
lfemur -22.5042 -19.9408 -20.3009
ltibia 22.9562
lfoot -10.5744 24.4996
ltoes 0.332835
497
root 9.02617 15.4597 -9.63847 -179.273 6.64828 -179.397
lowerback 2.61482 3.80202 3.36525
upperback -5.24163 5.4346 -1.45873
thorax -6.48015 2.5646 -3.83697
lowerneck -8.30914 -2.87201 -7.53784
upperneck 23.1056 -5.62014 6.36733
head 8.95325 -3.2109 2.78281
rclavicle 2.87244e-014 -1.03368e-014
rhumerus -34.1945 6.73645 -87.3856
rradius 34.0763
rwrist 19.1415
rhand -0.93646 -52.5945
rfingers 7.12502
rthumb 24.6931 -81.0211
lclavicle 2.87244e-014 -1.03368e-014
lhumerus -49.1615 11.5432 70.5104
lradius 33.3559
lwrist -20.9137
lhand -2.28856 -31.9044
lfingers 7.12502
lthumb 23.3966 -3.30659
rfemur 18.1907 4.08255 27.1041
rtibia 25.1023
rfoot 5.74221 -9.54207
rtoes 1.18443
lfemur -21.5802 -19.6556 -21.125
ltibia 22.65
lfoot -10.1316 24.3561
ltoes -0.955674
498
root 9.00334 15.4793 -9.808 -179.383 6.74783 -179.608
lowerback 2.3382 3.85879 3.46403
upperback -5.13827 5.499 -1.49397
thorax -6.19314 2.59997 -3.90157
lowerneck -7.78275 -2.73788 -7.79374
upperneck 22.5105 -5.45649 6.81049
head 8.65534 -3.11011 3.0025
rclavicle -2.37051e-014 -1.98785e-015
rhumerus -34.6465 6.40974 -87.0364
rradius 34.1814
rwrist 18.8912
rhand -0.75957 -52.5783
rfingers 7.12502
rthumb 24.8626 -80.9816
lclavicle -2.37051e-014 -1.98785e-015
lhumerus -48.6833 11.6296 70.4682
lradius 32.2805
lwrist -21.022
lhand -2.29145 -31.8156
lfingers 7.12502
lthumb 23.3938 -3.21739
rfemur 16.6283 3.66703 26.2527
rtibia 28.5773
rfoot 7.17408 -8.56377
rtoes 1.49267
lfemur -20.5523 -19.4749 -21.8523
ltibia 22.2634
lfoot -9.82959 24.3967
ltoes -1.42844
499
root 8.9841 15.4935 -9.96643 -179.468 6.74727 -179.846
lowerback 2.26131 3.86369 3.41806
upperback -5.07463 5.49472 -1.51022
thorax -6.08382 2.60264 -3.88209
lowerneck -8.62512 -2.84902 -7.69926
upperneck 23.1002 -5.54063 6.51535
head 9.01314 -3.15538 2.86632
rclavicle -8.62228e-014 1.86858e-014
rhumerus -35.0037 5.87839 -86.6359
rradius 34.1772
rwrist 18.7565
rhand -0.446346 -52.799
rfingers 7.12502
rthumb 25.1628 -81.1605
lclavicle -8.62228e-014 1.86858e-014
lhumerus -48.5714 11.4997 70.6099
lradius 32.0057
lwrist -20.7887
lhand -2.30523 -31.1969
lfingers 7.12502
lthumb 23.3806 -2.59702
rfemur 14.9843 3.1746 25.4377
rtibia 32.0819
rfoot 8.78003 -7.4524
rtoes 1.69881
lfemur -19.5289 -19.2218 -22.5896
ltibia 21.7664
lfoot -9.74433 24.1789
ltoes -1.81348
500
root 8.96661 15.5143 -10.1064 -179.446 6.58209 -180.119
lowerback 2.53032 3.76255 3.24882
upperback -5.22979 5.37024 -1.54194
thorax -6.42625 2.53972 -3.84721
lowerneck -8.51554 -2.80571 -7.6467
upperneck 23.2628 -5.44134 6.13775
head 9.02976 -3.15386 2.73949
rclavicle 6.36608e-014 6.36111e-015
rhumerus -35.7539 5.47389 -86.3846
rradius 34.5008
rwrist 18.3872
rhand -0.283736 -53.0678
rfingers 7.12502
rthumb 25.3186 -81.4074
lclavicle 6.36608e-014 6.36111e-015
lhumerus -49.1428 11.4389 70.5401
lradius 32.6998
lwrist -20.6307
lhand -2.30389 -30.9123
lfingers 7.12502
lthumb 23.3819 -2.31267
rfemur 13.1033 2.69629 24.6848
rtibia 35.5559
rfoot 10.3784 -6.57315
rtoes 2.30612
lfemur -18.7051 -18.9642 -23.29
ltibia 21.2507
lfoot -9.7312 23.8083
ltoes -2.10366
501
root 8.9515 15.5393 -10.2369 -179.392 6.31589 -180.467
lowerback 2.79279 3.6128 2.93074
upperback -5.30228 5.16194 -1.56277
thorax -6.69666 2.44447 -3.7058
lowerneck -8.23069 -2.73726 -7.66881
upperneck 22.8414 -5.30492 6.15547
head 8.82152 -3.0805 2.76815
rclavicle -1.23246e-014 9.34288e-015
rhumerus -36.324 5.32903 -86.1357
rradius 34.904
rwrist 17.8744
rhand -0.278525 -53.1789
rfingers 7.12502
rthumb 25.3236 -81.5177
lclavicle -1.23246e-014 9.34288e-015
lhumerus -49.3 11.5285 70.5242
lradius 33.0982
lwrist -20.4069
lhand -2.50382 -31.2227
lfingers 7.12502
lthumb 23.1901 -2.59878
rfemur 11.1142 2.16656 23.8971
rtibia 38.9964
rfoot 11.5926 -6.1141
rtoes 1.92633
lfemur -17.9407 -18.6446 -24.0466
ltibia 20.681
lfoot -9.35338 23.3207
ltoes -2.3667
502
root 8.92893 15.5577 -10.4009 -179.698 6.68801 -180.732
lowerback 2.65858 3.70978 2.89641
upperback -5.02325 5.25976 -1.55387
thorax -6.31675 2.50013 -3.65556
lowerneck -8.38411 -2.76245 -7.74669
upperneck 22.5898 -5.26777 6.22176
head 8.76532 -3.04025 2.80659
rclavicle -1.81391e-014 1.98785e-016
rhumerus -36.4003 5.2385 -85.8331
rradius 34.7664
rwrist 17.3744
rhand -0.25532 -52.9704
rfingers 7.12502
rthumb 25.3458 -81.3061
lclavicle -1.81391e-014 1.98785e-016
lhumerus -48.8068 11.2313 70.9464
lradius 32.6902
lwrist -19.4565
lhand -3.04164 -31.5649
lfingers 7.12502
lthumb 22.674 -2.87695
rfemur 9.61164 2.14085 23.1147
rtibia 42.3158
rfoot 12.8409 -5.40779
rtoes 0.752209
lfemur -16.5481 -18.6197 -24.8191
ltibia 20.0015
lfoot -9.438 23.6555
ltoes -1.67175
